<?xml version="1.0" encoding="UTF-8"?>
<svg width="83px" height="40px" viewBox="0 0 83 40" version="1.1" xmlns="http://www.w3.org/2000/svg" xmlns:xlink="http://www.w3.org/1999/xlink">
    <!-- Generator: Sketch 41.1 (35376) - http://www.bohemiancoding.com/sketch -->
    <title>footerLogo</title>
    <desc>Created with Sketch.</desc>
    <defs></defs>
    <g id="WFS-App-Styleguide" stroke="none" stroke-width="1" fill="none" fill-rule="evenodd">
        <g id="WFS-App-use-cases" transform="translate(-20.000000, -739.000000)" fill="#FFFFFF">
            <g id="footer" transform="translate(0.000000, 732.000000)">
                <g id="footerLogo" transform="translate(20.000000, 7.000000)">
                    <path d="M68.4405797,20.4 C67.5826087,20.4 66.9043478,21.2115942 66.7594203,22.4405797 L69.6,22.4405797 L69.6,22.0521739 C69.6,21.084058 69.1304348,20.4 68.4405797,20.4 L68.4405797,20.4 Z M60.9043478,25.9942029 C60.4856128,26.4830708 59.9830615,26.8933568 59.4202899,27.2057971 L60.9043478,27.2057971 L60.9043478,25.9942029 Z M63.1826087,0.573913043 C52.7478261,0.573913043 44.2608696,9.30434783 44.2608696,20.0753623 C44.258119,22.5122708 44.7021747,24.9290345 45.5710145,27.2057971 L46.6318841,27.2057971 L46.6318841,26.5449275 L47.8608696,26.5449275 L47.8608696,17.2289855 L46.6318841,17.2289855 L46.6318841,16.5507246 L53.2927536,16.5507246 L53.2927536,16.0985507 L54.1681159,16.0985507 L54.1681159,18.6724638 L53.3101449,18.6724638 L53.3101449,17.5130435 L49.9478261,17.5130435 L49.9478261,21.3333333 L52.5391304,21.3333333 L52.5391304,20.2318841 L53.4144928,20.2318841 L53.4144928,23.4202899 L52.5391304,23.4202899 L52.5391304,22.2608696 L49.9478261,22.2608696 L49.9478261,26.5333333 L51.0318841,26.5333333 L51.0318841,27.1942029 L57.1362319,27.1942029 C56.4603206,26.8327048 56.074101,26.0947495 56.1623188,25.3333333 L56.1623188,20.8811594 L55.0028986,20.8811594 L55.0028986,20.3652174 L57.3217391,19.7333333 L58.0347826,19.7333333 L58.0347826,25.026087 C58.0347826,25.9478261 58.3246377,26.3536232 58.9913043,26.3536232 C59.657971,26.3536232 60.0289855,26.0927536 60.8869565,25.1942029 L60.8869565,20.9043478 L60.057971,20.9043478 L60.057971,20.3246377 L62.1913043,19.7449275 L62.7710145,19.7449275 L62.7710145,26.2492754 L63.9304348,26.2492754 L63.9304348,26.7826087 L62.1913043,27.2173913 L67.0666667,27.2173913 C65.6695652,26.7130435 64.7942029,25.3913043 64.7942029,23.6115942 C64.7942029,21.2927536 66.2666667,19.715942 68.4985507,19.715942 C70.3768116,19.715942 71.6231884,20.8753623 71.6231884,22.6608696 L71.6231884,23.2753623 L66.7884058,23.2753623 C66.7884058,25.2811594 67.6927536,26.5275362 69.1536232,26.5275362 C69.7333333,26.5275362 70.0753623,26.4 71.3217391,25.6521739 L71.6927536,26.3652174 C71.1391374,26.7013124 70.5572145,26.9883943 69.9536232,27.2231884 L72.8521739,27.2231884 L72.8521739,26.5623188 L73.8086957,26.5623188 L73.8086957,16.4753623 L72.7246377,16.4753623 L72.7246377,15.9594203 L75.0434783,15.3275362 L75.6927536,15.3275362 L75.6927536,26.573913 L76.6492754,26.573913 L76.6492754,27.2347826 L77.9478261,27.2347826 C78.8046586,25.0823272 79.2434041,22.786291 79.2405797,20.4695652 C79.2405797,10.6144928 71.4956522,2.63768116 61.942029,2.63768116 C58.4489041,2.63594538 55.0415596,3.71973216 52.1913043,5.73913043 C55.2458361,3.28691465 59.0452378,1.94955796 62.9623188,1.94782609 C72.7014493,1.94782609 80.5971014,10.0637681 80.5971014,20.115942 C80.6018546,22.5561495 80.1251186,24.9733191 79.1942029,27.2289855 C76.2381152,34.1307011 69.5180684,38.6651456 62.0115942,38.8231884 L61.2347826,38.8231884 L60.9797101,38.8231884 L60.4695652,38.7884058 L60.1681159,38.7594203 L59.7101449,38.7072464 L59.3913043,38.6608696 L58.9565217,38.5913043 L58.6376812,38.5333333 L58.2144928,38.4463768 L57.8956522,38.3768116 L57.4724638,38.2724638 L57.1710145,38.1913043 L56.7130435,38.0521739 L56.4521739,37.9710145 C56.226087,37.8956522 56.0057971,37.8202899 55.7797101,37.7391304 L55.4608696,37.6115942 L55.0956522,37.4666667 L54.7536232,37.315942 L54.4231884,37.1652174 L54.0753623,37.0028986 L53.715942,36.7652174 L53.3681159,36.5797101 L53.0724638,36.4173913 L52.7304348,36.2144928 L52.4521739,36.0463768 L52.1101449,35.8318841 L51.8550725,35.6637681 L51.5014493,35.4202899 C51.1149758,35.1304348 50.7285024,34.8270531 50.342029,34.5101449 C53.1816889,37.1776556 56.7867633,38.8869232 60.6492754,39.3971014 L61.0318841,39.4434783 L61.2985507,39.4724638 C61.9264155,39.5374453 62.5571877,39.5703383 63.1884058,39.5710145 C73.6231884,39.5710145 82.1101449,30.8405797 82.1101449,20.0637681 C82.1101449,9.28695652 73.6347826,0.562318841 63.1884058,0.562318841 L63.1826087,0.573913043 Z" id="Shape"></path>
                    <path d="M18.9971014,26.626087 C18.0115942,26.626087 17.315942,25.3623188 17.315942,23.5652174 C17.315942,21.7681159 18.0115942,20.4927536 18.9971014,20.4927536 C19.9826087,20.4927536 20.6782609,21.7565217 20.6782609,23.5652174 C20.6782609,25.373913 19.9826087,26.626087 18.9971014,26.626087 M18.9971014,19.6985507 C17.4234886,19.6513449 15.978371,20.5629098 15.3431834,22.0034037 C14.7079959,23.4438976 15.0095774,25.1256716 16.1057194,26.2556975 C17.2018615,27.3857234 18.8736781,27.7383489 20.3328362,27.1472961 C21.7919943,26.5562433 22.7471182,25.139538 22.7478261,23.5652174 C22.8030399,22.544049 22.4296176,21.5461632 21.7175767,20.8121118 C21.0055359,20.0780604 20.0194772,19.6744411 18.9971014,19.6985507" id="Shape"></path>
                    <path d="M28.4405797,19.7043478 C27.9884058,19.7043478 27.6173913,19.9304348 27.0318841,20.5797101 L26.6608696,20.9855072 L26.6608696,19.7391304 L25.9478261,19.7391304 L23.6289855,20.3710145 L23.6289855,20.8869565 L24.7884058,20.8869565 L24.7884058,26.5507246 L23.8028986,26.5507246 L23.8028986,27.2289855 L27.7971014,27.2289855 L27.7971014,26.5507246 L26.6376812,26.5507246 L26.6376812,22.0695652 C27.0724638,21.4898551 27.3333333,21.2927536 27.6405797,21.2927536 C27.9405836,21.3451108 28.2186916,21.4841649 28.4405797,21.6927536 L29.4608696,20.284058 L28.9623188,19.8492754 C28.805937,19.727353 28.6091036,19.669339 28.4115942,19.6869565" id="Shape"></path>
                    <polygon id="Shape" points="32.7826087 15.3043478 32.1391304 15.3043478 29.8086957 15.9362319 29.8086957 16.4521739 30.8927536 16.4521739 30.8927536 26.5507246 29.9362319 26.5507246 29.9362319 27.2289855 33.7391304 27.2289855 33.7391304 26.5507246 32.7826087 26.5507246"></polygon>
                    <path d="M39.5478261,25.6057971 C39.2193241,26.0124711 38.7407374,26.2695286 38.2202899,26.3188406 C37.2811594,26.3188406 36.5217391,25.0550725 36.5217391,23.5014493 C36.5217391,21.7623188 37.4608696,20.4463768 38.6724638,20.4463768 C39.2521739,20.4463768 39.5478261,20.8173913 39.5478261,21.6753623 L39.5478261,25.6057971 L39.5478261,25.6057971 Z M41.4550725,26.2376812 L41.4550725,15.315942 L40.742029,15.315942 L38.4231884,15.9478261 L38.4231884,16.4753623 L39.5826087,16.4753623 L39.5826087,19.9536232 C39.2140045,19.8071383 38.8197362,19.73617 38.4231884,19.7449275 C37.3649597,19.741096 36.3508454,20.1685769 35.6146889,20.928798 C34.8785323,21.6890191 34.4838817,22.7163548 34.5217391,23.773913 C34.5217391,25.9072464 35.8144928,27.4782609 37.6115942,27.4782609 C38.4347826,27.4782609 38.8405797,27.2695652 39.6,26.4927536 L39.6,27.4318841 L40.3130435,27.4318841 L42.6318841,26.8173913 L42.6318841,26.284058 L41.4724638,26.284058 L41.4550725,26.2376812 Z" id="Shape"></path>
                    <polygon id="Shape" points="13.4550725 16.4289855 13.4550725 17.1072464 14.6202899 17.1072464 11.6753623 24.6492754 8.67246377 17.1014493 9.68115942 17.1072464 9.68115942 16.4289855 5.83188406 16.4289855 5.83188406 17.1072464 6.73623188 17.1072464 7.78550725 19.7855072 5.91884058 24.5333333 3.02608696 17.1072464 3.93043478 17.1072464 3.93043478 16.4289855 0 16.4289855 0 17.1072464 0.956521739 17.1072464 4.96811594 27.3797101 6.0057971 27.3797101 8.37681159 21.2869565 10.7652174 27.3797101 11.8028986 27.3797101 15.8144928 17.1072464 16.626087 17.1072464 16.626087 16.4289855"></polygon>
                    <path d="M51.3217391,33.7391304 L50.9855072,33.7391304 L50.9855072,32.6492754 L51.3217391,32.6492754 L51.3217391,33.0956522 C51.5316446,33.2889079 51.8074524,33.3946688 52.0927536,33.3913043 C52.2513137,33.4107873 52.4108859,33.3639744 52.5337909,33.2619193 C52.656696,33.1598642 52.7320388,33.0116138 52.742029,32.8521739 C52.742029,32.5797101 52.5681159,32.3884058 52.0057971,32.0231884 C51.6965467,31.8672651 51.4177434,31.6571809 51.1826087,31.4028986 C51.0244891,31.2107821 50.9420229,30.9675067 50.9507246,30.7188406 C50.948993,30.4039427 51.0814251,30.1032037 51.3148842,29.8918734 C51.5483434,29.680543 51.860742,29.5786153 52.173913,29.6115942 C52.399376,29.6077909 52.6229472,29.6532966 52.8289855,29.7449275 L52.8289855,29.5768116 L53.1536232,29.5768116 L53.1536232,30.6086957 L52.8289855,30.6086957 L52.8289855,30.1913043 C52.6446054,30.0483029 52.4188126,29.9689703 52.1855072,29.9652174 C52.0407509,29.9507186 51.8964327,29.9966427 51.7866759,30.0921312 C51.676919,30.1876197 51.6114676,30.3241951 51.6057971,30.4695652 C51.6057971,30.7130435 51.7449275,30.8637681 52.3246377,31.2289855 C52.6028986,31.4086957 52.7768116,31.5188406 52.8463768,31.5652174 C52.9951731,31.6704766 53.121335,31.8045235 53.2173913,31.9594203 C53.4600009,32.3260308 53.4743983,32.7983198 53.2545704,33.1790275 C53.0347424,33.5597352 52.6185062,33.783368 52.1797101,33.7565217 C51.8698377,33.7652675 51.5639793,33.6847785 51.2985507,33.5246377 L51.2985507,33.7333333 L51.3217391,33.7391304 Z" id="Shape"></path>
                    <path d="M55.7681159,31.8956522 L55.7681159,31.7507246 C55.7952094,31.6122464 55.7656971,31.4686859 55.6861743,31.3521251 C55.6066516,31.2355644 55.4837473,31.1557199 55.3449275,31.1304348 C54.9705261,31.1865924 54.6997473,31.5175443 54.7188406,31.8956522 L55.7681159,31.8956522 L55.7681159,31.8956522 Z M56.5391304,33.3565217 C56.1835145,33.6156841 55.7559476,33.7575309 55.315942,33.7623188 C54.93988,33.7737419 54.5769131,33.6236528 54.3187437,33.3499711 C54.0605743,33.0762894 53.9318954,32.7051918 53.9652174,32.3304348 C53.9316462,31.9474403 54.0643066,31.5684913 54.3294258,31.2900607 C54.594545,31.01163 54.966546,30.8605791 55.3507246,30.8753623 C55.6554716,30.8485569 55.957059,30.953889 56.1788534,31.1645937 C56.4006478,31.3752984 56.5212973,31.6710914 56.5101449,31.9768116 L56.5101449,32.2028986 L54.7072464,32.2028986 C54.7072464,32.9507246 55.0434783,33.4202899 55.5884058,33.4202899 C55.8861616,33.3993158 56.1699189,33.2858129 56.4,33.0956522 L56.5391304,33.3565217 Z" id="Shape"></path>
                    <path d="M58.5855072,33.6869565 L57.0956522,33.6869565 L57.0956522,33.4318841 L57.426087,33.4318841 L57.426087,31.315942 L57.0028986,31.315942 L57.0028986,31.1246377 L57.8724638,30.8869565 L58.1391304,30.8869565 L58.1391304,31.3565217 L58.2782609,31.2057971 C58.3960726,31.0234862 58.5899563,30.9041732 58.8057971,30.8811594 C58.881078,30.8737809 58.9561927,30.8967326 59.0144928,30.9449275 L59.2,31.1072464 L58.8173913,31.6289855 C58.7347897,31.5478841 58.629799,31.4933697 58.515942,31.4724638 C58.3522209,31.5054987 58.2130555,31.612549 58.1391304,31.7623188 L58.1391304,33.4376812 L58.5855072,33.4376812 L58.5855072,33.6927536 L58.5855072,33.6869565 Z" id="Shape"></path>
                    <polygon id="Shape" points="62.3652174 31.2057971 62.0985507 31.2057971 61.1246377 33.7623188 60.8869565 33.7623188 59.8550725 31.2057971 59.6927536 31.2057971 59.6927536 30.9507246 60.8637681 30.9507246 60.8637681 31.2057971 60.6028986 31.2057971 61.2115942 32.7072464 61.7971014 31.2057971 61.4318841 31.2057971 61.4318841 30.9507246 62.3652174 30.9507246"></polygon>
                    <path d="M63.5594203,29.4202899 C63.6731943,29.4202899 63.7823085,29.4654864 63.8627589,29.5459368 C63.9432092,29.6263872 63.9884058,29.7355013 63.9884058,29.8492754 C63.9884058,30.0861975 63.7963424,30.2782609 63.5594203,30.2782609 C63.3224981,30.2782609 63.1304348,30.0861975 63.1304348,29.8492754 C63.1335559,29.6136581 63.3238031,29.423411 63.5594203,29.4202899 L63.5594203,29.4202899 Z M64.2956522,33.6869565 L62.8753623,33.6869565 L62.8753623,33.4318841 L63.2231884,33.4318841 L63.2231884,31.315942 L62.8231884,31.315942 L62.8231884,31.1246377 L63.6927536,30.8869565 L63.9246377,30.8869565 L63.9246377,33.4318841 L64.284058,33.4318841 L64.284058,33.6869565 L64.2956522,33.6869565 Z" id="Shape"></path>
                    <path d="M67.2115942,33.4434783 C66.8934591,33.6393559 66.5298936,33.7492246 66.1565217,33.7623188 C65.7884387,33.7678598 65.434721,33.6196433 65.1805398,33.3533583 C64.9263586,33.0870732 64.7947455,32.7268478 64.8173913,32.3594203 C64.8289145,31.7964789 65.1509178,31.286105 65.6540463,31.0333255 C66.1571748,30.7805459 66.7588592,30.8268449 67.2173913,31.1536232 L66.8347826,31.5362319 C66.6703076,31.3668426 66.4730642,31.2327171 66.2550725,31.142029 C65.8004934,31.3566642 65.5224602,31.8265078 65.5531026,32.3282761 C65.5837449,32.8300443 65.9168843,33.2625644 66.3942029,33.4202899 C66.6283899,33.4061058 66.8527636,33.3212076 67.0376812,33.1768116 L67.2115942,33.4434783 Z" id="Shape"></path>
                    <path d="M69.5014493,31.8956522 L69.5014493,31.7507246 C69.5285427,31.6122464 69.4990304,31.4686859 69.4195077,31.3521251 C69.3399849,31.2355644 69.2170807,31.1557199 69.0782609,31.1304348 C68.6992216,31.1811803 68.422142,31.5136758 68.4405797,31.8956522 L69.4956522,31.8956522 L69.5014493,31.8956522 Z M70.2782609,33.3565217 C69.9226449,33.6156841 69.495078,33.7575309 69.0550725,33.7623188 C68.6790104,33.7737419 68.3160436,33.6236528 68.0578741,33.3499711 C67.7997047,33.0762894 67.6710259,32.7051918 67.7043478,32.3304348 C67.6707767,31.9474403 67.803437,31.5684913 68.0685562,31.2900607 C68.3336754,31.01163 68.7056764,30.8605791 69.0898551,30.8753623 C69.394602,30.8485569 69.6961894,30.953889 69.9179838,31.1645937 C70.1397782,31.3752984 70.2604278,31.6710914 70.2492754,31.9768116 L70.2492754,32.2028986 L68.4405797,32.2028986 C68.4405797,32.9507246 68.7768116,33.4202899 69.3217391,33.4202899 C69.6194076,33.3989354 69.9030531,33.2854771 70.1333333,33.0956522 L70.2782609,33.3565217 Z" id="Shape"></path>
                    <path d="M71.2173913,33.7391304 L70.9217391,33.7391304 L70.9217391,32.8811594 L71.2521739,32.8811594 L71.2521739,33.0434783 C71.3458053,33.3500218 71.6475027,33.5437949 71.9652174,33.5014493 C72.0701389,33.5252186 72.1802194,33.5044063 72.2692213,33.443973 C72.3582231,33.3835397 72.4181732,33.288899 72.4347826,33.1826087 C72.4347826,32.9391304 72.284058,32.8173913 71.6927536,32.6028986 C71.1014493,32.3884058 70.8869565,32.1391304 70.8869565,31.715942 C70.891526,31.4720122 70.9997284,31.2415633 71.1844968,31.082242 C71.3692653,30.9229207 71.6131242,30.8497958 71.8550725,30.8811594 C72.0992306,30.8640868 72.3410056,30.9384791 72.5333333,31.0898551 L72.5681159,30.8695652 L72.8811594,30.8695652 L72.7304348,31.7391304 L72.4231884,31.7391304 C72.4448103,31.6755995 72.4565414,31.6091233 72.457971,31.542029 C72.3771625,31.2931371 72.1396296,31.1292394 71.8782609,31.142029 C71.7751966,31.1237157 71.669192,31.1497926 71.5863856,31.2138295 C71.5035793,31.2778664 71.4516775,31.3739039 71.4434783,31.4782609 C71.4434783,31.7043478 71.542029,31.773913 72.1797101,32.0289855 C72.8173913,32.284058 72.973913,32.4927536 72.973913,32.9275362 C72.982743,33.1752558 72.879477,33.4137661 72.6927914,33.5768349 C72.5061058,33.7399036 72.255878,33.8101679 72.0115942,33.7681159 C71.7291843,33.7900494 71.4491078,33.7029144 71.2289855,33.5246377 L71.2289855,33.7449275 L71.2173913,33.7391304 Z" id="Shape"></path>
                    <path d="M80.1855072,32.3884058 L80.3652174,32.3884058 C80.4485029,32.4108656 80.5373936,32.39728 80.6101685,32.3509687 C80.6829433,32.3046574 80.7328982,32.2298868 80.7478261,32.1449275 C80.7478261,31.9942029 80.6376812,31.8956522 80.3942029,31.8956522 C80.3248899,31.8872741 80.2548202,31.8872741 80.1855072,31.8956522 L80.1855072,32.3652174 L80.1855072,32.3884058 Z M80.1855072,33.3101449 L79.8028986,33.3101449 L79.8028986,31.6695652 C80.0119045,31.6362227 80.2231384,31.6187813 80.4347826,31.6173913 C80.6376063,31.5937809 80.8423648,31.6408754 81.0144928,31.7507246 C81.1240441,31.8321948 81.1868276,31.9620917 81.1826087,32.0985507 C81.1709214,32.2890191 81.0332063,32.4481038 80.8463768,32.4869565 L80.8463768,32.4869565 C81.0109882,32.5545898 81.1232194,32.709469 81.1362319,32.8869565 C81.1582497,33.0252478 81.1992145,33.1598466 81.257971,33.2869565 L80.857971,33.2869565 C80.7941386,33.1613846 80.7510687,33.0263018 80.7304348,32.8869565 C80.7206296,32.8073613 80.6782854,32.7353858 80.6134749,32.688151 C80.5486643,32.6409161 80.4671803,32.6226441 80.3884058,32.6376812 L80.2086957,32.6376812 L80.2086957,33.2869565 L80.1855072,33.3101449 Z M79.1710145,32.457971 C79.1632121,32.8027496 79.2947386,33.1361138 79.5358535,33.3826837 C79.7769683,33.6292537 80.1073071,33.7682042 80.4521739,33.7681159 C80.7929945,33.7667771 81.1186858,33.6272051 81.3547167,33.3813396 C81.5907476,33.1354741 81.7169154,32.8043595 81.7043478,32.4637681 C81.7363643,31.9907788 81.5021847,31.5393551 81.0970705,31.2931308 C80.6919563,31.0469065 80.183406,31.0469065 79.7782918,31.2931308 C79.3731776,31.5393551 79.138998,31.9907788 79.1710145,32.4637681 L79.1710145,32.457971 Z M82.1275362,32.4637681 C82.1464178,33.1515615 81.7456968,33.7818973 81.1148892,34.0566662 C80.4840815,34.3314351 79.7496154,34.1955671 79.2588473,33.7133193 C78.7680793,33.2310715 78.6193703,32.4990973 78.8830504,31.8635747 C79.1467306,31.2280521 79.7699525,30.8163542 80.457971,30.8231884 C80.8971577,30.8185545 81.3201147,30.9889843 81.6333914,31.2968222 C81.9466681,31.6046601 82.1244785,32.0245676 82.1275362,32.4637681 L82.1275362,32.4637681 Z" id="Shape"></path>
                </g>
            </g>
        </g>
    </g>
</svg>